<svg width="16" height="16" viewBox="0 0 16 16" fill="none" xmlns="http://www.w3.org/2000/svg">
<path fill-rule="evenodd" clip-rule="evenodd" d="M15.8623 8C15.8623 3.85775 12.5046 0.5 8.3623 0.5C4.22005 0.5 0.862305 3.85775 0.862305 8C0.862305 12.1423 4.22005 15.5 8.3623 15.5C12.5046 15.5 15.8623 12.1423 15.8623 8ZM8.3623 4.25C8.56122 4.25 8.75198 4.32902 8.89263 4.46967C9.03329 4.61032 9.1123 4.80109 9.1123 5V8.75C9.1123 8.94891 9.03329 9.13968 8.89263 9.28033C8.75198 9.42098 8.56122 9.5 8.3623 9.5C8.16339 9.5 7.97263 9.42098 7.83197 9.28033C7.69132 9.13968 7.6123 8.94891 7.6123 8.75V5C7.6123 4.80109 7.69132 4.61032 7.83197 4.46967C7.97263 4.32902 8.16339 4.25 8.3623 4.25ZM7.6123 11C7.6123 10.8011 7.69132 10.6103 7.83197 10.4697C7.97263 10.329 8.16339 10.25 8.3623 10.25H8.36831C8.56722 10.25 8.75798 10.329 8.89863 10.4697C9.03929 10.6103 9.11831 10.8011 9.11831 11C9.11831 11.1989 9.03929 11.3897 8.89863 11.5303C8.75798 11.671 8.56722 11.75 8.36831 11.75H8.3623C8.16339 11.75 7.97263 11.671 7.83197 11.5303C7.69132 11.3897 7.6123 11.1989 7.6123 11Z" fill="#FF8912"/>
</svg>
