<svg width="20" height="20" viewBox="0 0 20 20" fill="currentColor" xmlns="http://www.w3.org/2000/svg">
<path d="M10 3.33331C5.83334 3.33331 2.275 5.92498 0.833336 9.58331C2.275 13.2416 5.83334 15.8333 10 15.8333C14.1667 15.8333 17.725 13.2416 19.1667 9.58331C17.725 5.92498 14.1667 3.33331 10 3.33331ZM10 13.75C7.7 13.75 5.83334 11.8833 5.83334 9.58331C5.83334 7.28331 7.7 5.41665 10 5.41665C12.3 5.41665 14.1667 7.28331 14.1667 9.58331C14.1667 11.8833 12.3 13.75 10 13.75ZM10 7.08331C8.61667 7.08331 7.5 8.19998 7.5 9.58331C7.5 10.9666 8.61667 12.0833 10 12.0833C11.3833 12.0833 12.5 10.9666 12.5 9.58331C12.5 8.19998 11.3833 7.08331 10 7.08331Z"/>
</svg>
