<svg width="20" height="20" viewBox="0 0 20 20" fill="currentColor" xmlns="http://www.w3.org/2000/svg">
<path d="M10 5.41667C12.3 5.41667 14.1667 7.28334 14.1667 9.58334C14.1667 10.0083 14.0833 10.4167 13.9667 10.8L16.5167 13.35C17.675 12.325 18.5917 11.0417 19.1667 9.575C17.725 5.925 14.1667 3.33334 10 3.33334C8.94167 3.33334 7.925 3.5 6.96667 3.80834L8.775 5.61667C9.16667 5.5 9.575 5.41667 10 5.41667ZM2.25834 2.63334C2.18108 2.71043 2.11979 2.80201 2.07798 2.90282C2.03616 3.00363 2.01463 3.1117 2.01463 3.22084C2.01463 3.32998 2.03616 3.43805 2.07798 3.53886C2.11979 3.63967 2.18108 3.73124 2.25834 3.80834L3.9 5.45C2.5316 6.53366 1.4737 7.95953 0.833336 9.58334C2.275 13.2417 5.83334 15.8333 10 15.8333C11.2667 15.8333 12.475 15.5833 13.5917 15.15L15.8583 17.4167C16.0141 17.5725 16.2255 17.66 16.4458 17.66C16.6662 17.66 16.8775 17.5725 17.0333 17.4167C17.1891 17.2609 17.2767 17.0495 17.2767 16.8292C17.2767 16.6088 17.1891 16.3975 17.0333 16.2417L3.44167 2.63334C3.11667 2.30834 2.58334 2.30834 2.25834 2.63334ZM10 13.75C7.7 13.75 5.83334 11.8833 5.83334 9.58334C5.83334 8.94167 5.98334 8.33334 6.24167 7.8L7.55 9.10834C7.525 9.25834 7.5 9.41667 7.5 9.58334C7.5 10.9667 8.61667 12.0833 10 12.0833C10.1667 12.0833 10.3167 12.0583 10.475 12.025L11.7833 13.3333C11.2417 13.6 10.6417 13.75 10 13.75ZM12.475 9.30834C12.4153 8.74531 12.1643 8.21979 11.7639 7.81943C11.3636 7.41907 10.838 7.16809 10.275 7.10834L12.475 9.30834Z" />
</svg>
